<svg xmlns="http://www.w3.org/2000/svg" viewBox="0 0 128 128"><defs><style>.cls-1{fill:#0a81ed;}.cls-2{fill:#0075f2;}.cls-3{font-size:85.19px;fill:#fff;font-family:Comfortaa-Regular, Comfortaa;}</style></defs><g id="Layer_2" data-name="Layer 2"><g id="Layer_1-2" data-name="Layer 1"><path class="cls-1" d="M127.6,71.24A64,64,0,1,1,2,48.26c9.22,12.79,26,29.76,52.79,36.29C88.75,92.83,116.09,78.74,127.6,71.24Z"/><path class="cls-1" d="M103.69,13.79c-8.09,22.14-28,37.85-50.76,39.56-17.18,1.29-34-5.53-46.17-18a64,64,0,0,1,96.93-21.56Z"/><path class="cls-2" d="M128,64a66.57,66.57,0,0,1-.4,7.24c-11.51,7.5-38.85,21.59-72.86,13.31C27.92,78,11.17,61.05,2,48.26A63.06,63.06,0,0,1,6.76,35.35c12.13,12.47,29,19.29,46.17,18,22.76-1.71,42.67-17.42,50.76-39.56A63.88,63.88,0,0,1,128,64Z"/><text class="cls-3" transform="translate(16.12 93.24)">b</text><text class="cls-3" transform="translate(60 93.24)">e</text></g></g></svg>